<?xml version="1.0" encoding="utf-8"?>
<!-- Generator: Adobe Illustrator 24.3.0, SVG Export Plug-In . SVG Version: 6.00 Build 0)  -->
<svg version="1.1" id="Capa_1" xmlns="http://www.w3.org/2000/svg" xmlns:xlink="http://www.w3.org/1999/xlink" x="0px" y="0px"
	 viewBox="0 0 388.4 242" style="enable-background:new 0 0 388.4 242;" xml:space="preserve">
<style type="text/css">
	.st0{fill:#000000;}
</style>
<g>
	<g>
		<path class="st0" d="M307.6,80c-11.2,0-22,2.4-32,6.4L262,60V18c0-2.4-1.6-4.8-4-5.6l-32-12c-3.2-1.2-6.4,0.4-7.6,3.6
			c-1.2,3.2,0.4,6.4,3.6,7.6L250.4,22v34H133.2V44.4h14.4c3.2,0,6-2.8,6-6s-2.8-6-6-6h-37.2c-3.2,0-6,2.8-6,6s2.8,6,6,6h10.8v16.4
			L109.6,86c-8.8-3.6-18.8-5.6-28.8-5.6c-44.4,0-80.8,36-80.8,80.8S36,242,80.8,242c42.4,0,77.2-33.2,80.4-74.8h26
			c2,0,3.6-0.8,4.8-2.4L254.8,74l10,18.8c-22.8,13.6-38,39.2-38,68c0,44.4,36,80.8,80.8,80.8s80.8-36,80.8-80.8S352.4,80,307.6,80z
			 M80.8,229.6c-38,0-68.8-30.8-68.8-68.8S42.8,92,80.8,92c8.4,0,16.4,1.6,23.6,4.4l-29.2,62c0,0,0,0,0,0.4c-0.4,0.8-0.4,1.2-0.4,2
			c0,0,0,0,0,0.4c0,0.8,0,1.2,0.4,2v0.4c0,0.4,0,0.4,0.4,0.8c0,0.4,0.4,0.4,0.8,0.8c0,0,0,0,0,0.4c0.4,0.4,1.2,0.8,1.6,1.2h0.4
			c0.8,0.4,1.2,0.4,2,0.4h68.4C146,202,116.8,229.6,80.8,229.6z M90,154.8l25.2-53.2c18.8,10.8,32,30.4,34,53.2H90z M184,154.8
			h-23.2c-2-27.6-18-51.2-40.8-64.4l10.8-22.8H244L184,154.8z M307.2,229.6c-38,0-68.8-30.8-68.8-68.8c0-24.4,12.8-45.6,32-58
			l31.6,60.8c1.2,2,3.2,3.2,5.2,3.2c0.8,0,2-0.4,2.8-0.8c2.8-1.6,4-5.2,2.4-8l-31.6-60.8C289.2,94,298,92,307.2,92
			c38,0,68.8,30.8,68.8,68.8S345.2,229.6,307.2,229.6z"/>
	</g>
</g>
  	<!-- dark mode favicon -->
  	<style>
		@media (prefers-color-scheme: dark) {
			:root {
				filter: invert(100%);
			}
		}
  	</style>
</svg>
