<?xml version="1.0" encoding="utf-8"?>
<!-- Generator: Adobe Illustrator 26.0.3, SVG Export Plug-In . SVG Version: 6.00 Build 0)  -->
<svg version="1.1" id="Layer_1" xmlns="http://www.w3.org/2000/svg" xmlns:xlink="http://www.w3.org/1999/xlink" x="0px" y="0px"
	 viewBox="0 0 120.2 39.2" style="enable-background:new 0 0 120.2 39.2;" xml:space="preserve">
<style type="text/css">
	.st0{fill:#FFFFFF;}
</style>
<path class="st0" d="M5.6,19v7.4H2v-18H1.8C0.8,8.4,0,7.6,0,6.6s0.8-1.8,1.8-1.8h5c3.9,0,7.1,3.2,7.1,7.1c0,2.2-1,4.1-2.6,5.4
	c2.1,1.5,3.4,3.4,4.3,6.3c0.1,0.4,0.2,1,0.2,1.3c0,1-0.8,1.8-1.8,1.8s-1.6-0.7-1.8-1.5c0-0.2-0.1-0.6-0.2-0.9
	C11.3,21.5,8.8,19.3,5.6,19z M6.8,8.4H5.6v6.9h1.2c1.9,0,3.5-1.5,3.5-3.4C10.3,10,8.7,8.4,6.8,8.4z"/>
<g>
	<path class="st0" d="M25,18c1,0,1.8,0.8,1.8,1.8S26,21.6,25,21.6h-3c0.6,1,1.7,1.7,3,1.7c0.9,0,1.6-0.3,2.2-0.8
		c0.4-0.3,0.8-0.5,1.2-0.5c1,0,1.8,0.8,1.8,1.8c0,0.4-0.2,0.9-0.6,1.3c-1.2,1-2.8,1.7-4.6,1.7c-3.9,0-7-3.1-7-7s3.1-7,7-7
		c1.7,0,3.4,0.6,4.6,1.7c0.5,0.4,0.6,0.9,0.6,1.4c0,1-0.8,1.8-1.8,1.8c-0.4,0-0.8-0.1-1.2-0.4c-0.6-0.6-1.4-0.8-2.3-0.8
		c-1.3,0-2.4,0.7-3,1.7H25V18z"/>
	<path class="st0" d="M40,21.1h-6c-0.7,0-1.3-0.6-1.3-1.3c0-0.8,0.6-1.3,1.3-1.3h6c0.8,0,1.3,0.6,1.3,1.3
		C41.4,20.5,40.8,21.1,40,21.1z"/>
</g>
<path class="st0" d="M63.3,9.1c0,1-0.8,1.8-1.8,1.8c-0.5,0-1-0.2-1.3-0.5c-1-1-2.8-2.2-5.2-2.2c-4.1,0-7.4,3.3-7.4,7.4
	S50.9,23,55,23c2.8,0,4.6-1.6,5.3-2.2c0.3-0.3,0.8-0.5,1.3-0.5c1,0,1.8,0.8,1.8,1.8c0,0.5-0.2,1-0.5,1.2c-0.5,0.6-3.3,3.4-8,3.4
	c-6.1,0-11-4.9-11-11s4.9-11,11-11c4.1,0,6.8,2.2,7.8,3.2C63.1,8.2,63.3,8.6,63.3,9.1z"/>
<path class="st0" d="M75.7,15.4c-1,1.6-2,3-2.7,4.4c1.2,2.7,1.9,6,1.9,9.7c0,5.8-1.9,9.7-3.9,9.7s-3.9-3.9-3.9-9.7
	c0-3.6,0.7-7,1.9-9.7c-0.8-1.4-1.7-2.8-2.7-4.4C66,15,66,14.6,66,14.4c0-1,0.8-1.8,1.8-1.8c0.5,0,1.1,0.3,1.5,0.8
	c0.6,0.9,1.2,1.8,1.8,2.7c0.6-0.8,1.2-1.7,1.8-2.7c0.4-0.5,1-0.8,1.5-0.8c1,0,1.8,0.8,1.8,1.8C76,14.6,75.9,15,75.7,15.4z M71,23.2
	c-0.3,1.4-0.7,4.6-0.7,6.3c0,3,0.3,4.8,0.7,4.8c0.4,0,0.7-1.9,0.7-4.8C71.7,27.8,71.4,24.6,71,23.2z"/>
<path class="st0" d="M85.2,26.6c-3.9,0-7-3.1-7-7s3.1-7,7-7c1.7,0,3.4,0.6,4.6,1.7c0.5,0.4,0.6,0.9,0.6,1.4c0,1-0.8,1.8-1.8,1.8
	c-0.4,0-0.8-0.1-1.2-0.4c-0.6-0.6-1.4-0.8-2.3-0.8c-1.9,0-3.5,1.6-3.5,3.5s1.6,3.5,3.5,3.5c0.9,0,1.6-0.3,2.2-0.8
	c0.4-0.3,0.8-0.5,1.2-0.5c1,0,1.8,0.8,1.8,1.8c0,0.4-0.2,0.9-0.6,1.3C88.6,26,86.9,26.6,85.2,26.6z"/>
<path class="st0" d="M101.8,26.6c-0.5,0-1.1-0.3-1.5-0.8c-0.6-1-1.2-1.8-1.8-2.7c-0.6,0.8-1.2,1.8-1.8,2.7c-0.4,0.5-1,0.8-1.5,0.8
	c-1,0-1.8-0.8-1.8-1.8c0-0.3,0-0.6,0.3-1c1-1.5,2-3,2.7-4.4c-1.2-2.7-1.9-6-1.9-9.7c0-5.8,1.9-9.7,3.9-9.7s3.9,3.9,3.9,9.7
	c0,3.6-0.7,7-1.9,9.7c0.8,1.4,1.7,2.8,2.7,4.4c0.2,0.3,0.3,0.7,0.3,1C103.5,25.8,102.7,26.6,101.8,26.6z M98.5,4.9
	c-0.4,0-0.7,1.9-0.7,4.8c0,1.7,0.4,4.9,0.7,6.3c0.4-1.4,0.7-4.6,0.7-6.3C99.2,6.8,98.9,4.9,98.5,4.9z"/>
<path class="st0" d="M115,17.8c1,0,1.8,0.8,1.8,1.8s-0.8,1.8-1.8,1.8h-3c0.6,1,1.7,1.7,3,1.7c0.9,0,1.6-0.3,2.2-0.8
	c0.4-0.3,0.8-0.5,1.2-0.5c1,0,1.8,0.8,1.8,1.8c0,0.4-0.2,0.9-0.6,1.3c-1.2,1-2.8,1.7-4.6,1.7c-3.9,0-7-3.1-7-7s3.1-7,7-7
	c1.7,0,3.4,0.6,4.6,1.7c0.5,0.4,0.6,0.9,0.6,1.4c0,1-0.8,1.8-1.8,1.8c-0.4,0-0.8-0.1-1.2-0.4c-0.6-0.6-1.4-0.8-2.3-0.8
	c-1.3,0-2.4,0.7-3,1.7h3.1V17.8z"/>
<g>
	<path class="st0" d="M6.3,36.3v0.6H2.7v-4.8h3.5v0.6H3.4v1.5h2.5v0.6H3.4v1.5C3.4,36.3,6.3,36.3,6.3,36.3z"/>
	<path class="st0" d="M7.4,34.5c0-1.4,1.1-2.4,2.6-2.4c0.8,0,1.4,0.3,1.9,0.7l-0.5,0.4c-0.4-0.4-0.8-0.6-1.4-0.6
		c-1.1,0-1.9,0.8-1.9,1.8s0.8,1.8,1.9,1.8c0.5,0,1-0.2,1.4-0.6l0.5,0.4c-0.4,0.5-1.1,0.7-1.9,0.7C8.5,36.9,7.4,35.9,7.4,34.5z"/>
	<path class="st0" d="M12.8,34.5c0-1.4,1.1-2.4,2.6-2.4s2.6,1,2.6,2.4s-1.1,2.4-2.6,2.4C13.9,36.9,12.8,35.9,12.8,34.5z M17.3,34.5
		c0-1.1-0.8-1.8-1.9-1.8s-1.9,0.8-1.9,1.8s0.8,1.8,1.9,1.8S17.3,35.5,17.3,34.5z"/>
	<path class="st0" d="M19.2,34.7H21v0.6h-1.9v-0.6H19.2z"/>
	<path class="st0" d="M23.3,32.7v1.7h2.5V35h-2.5v1.9h-0.7v-4.8H26v0.6H23.3z"/>
	<path class="st0" d="M30.7,36.9l-1.1-1.5c-0.1,0-0.2,0-0.3,0h-1.2v1.4h-0.7V32h1.9c1.3,0,2,0.6,2,1.7c0,0.7-0.4,1.3-1.1,1.5
		l1.2,1.6L30.7,36.9L30.7,36.9z M30.7,33.8c0-0.7-0.5-1.1-1.4-1.1h-1.2v2.1h1.2C30.2,34.8,30.7,34.4,30.7,33.8z"/>
	<path class="st0" d="M32.9,32.1h0.7v4.8h-0.7V32.1z"/>
	<path class="st0" d="M39.1,36.3v0.6h-3.6v-4.8H39v0.6h-2.8v1.5h2.5v0.6h-2.5v1.5C36.2,36.3,39.1,36.3,39.1,36.3z"/>
	<path class="st0" d="M44.8,32.1v4.8h-0.6l-2.9-3.6v3.6h-0.7v-4.8h0.6l2.9,3.6v-3.6H44.8z"/>
	<path class="st0" d="M46.7,32.1h2.1c1.6,0,2.6,1,2.6,2.4s-1.1,2.4-2.6,2.4h-2.1V32.1z M48.7,36.3c1.2,0,2-0.7,2-1.8s-0.8-1.8-2-1.8
		h-1.3v3.6H48.7z"/>
	<path class="st0" d="M52.9,32.1h0.7v4.2h2.6v0.6h-3.3V32.1z"/>
	<path class="st0" d="M58.8,35.2v1.6h-0.7v-1.7L56.2,32h0.7l1.6,2.5l1.6-2.5h0.7L58.8,35.2z"/>
	<path class="st0" d="M79.1,34.5c0-1.4,1.1-2.4,2.6-2.4c0.8,0,1.4,0.3,1.9,0.7l-0.5,0.4c-0.4-0.4-0.8-0.6-1.4-0.6
		c-1.1,0-1.9,0.8-1.9,1.8s0.8,1.8,1.9,1.8c0.5,0,1-0.2,1.4-0.6l0.5,0.4c-0.4,0.5-1.1,0.7-1.9,0.7C80.2,36.9,79.1,35.9,79.1,34.5z"/>
	<path class="st0" d="M84.8,32.1h0.7v4.8h-0.7V32.1z"/>
	<path class="st0" d="M88.1,32.7h-1.7v-0.6h4v0.6h-1.7v4.2H88L88.1,32.7L88.1,32.7z"/>
	<path class="st0" d="M93.3,35.2v1.6h-0.7v-1.7L90.7,32h0.7l1.6,2.5l1.6-2.5h0.7L93.3,35.2z"/>
	<path class="st0" d="M102.4,35.6c0,0.8-0.6,1.3-1.9,1.3h-2.3v-4.8h2.2c1.1,0,1.8,0.5,1.8,1.2c0,0.5-0.3,0.9-0.7,1.1
		C102,34.5,102.4,34.9,102.4,35.6z M98.9,32.6v1.5h1.4c0.7,0,1.1-0.3,1.1-0.8s-0.4-0.8-1.1-0.8L98.9,32.6L98.9,32.6z M101.7,35.5
		c0-0.6-0.4-0.8-1.2-0.8h-1.6v1.6h1.6C101.3,36.3,101.7,36.1,101.7,35.5z"/>
	<path class="st0" d="M103.7,32.1h0.7v4.8h-0.7V32.1z"/>
	<path class="st0" d="M107.7,34.7l-0.9,0.9v1.2h-0.7V32h0.7v2.7l2.7-2.7h0.8l-2.1,2.1l2.2,2.6h-0.8L107.7,34.7z"/>
	<path class="st0" d="M114.8,36.3v0.6h-3.6v-4.8h3.5v0.6H112v1.5h2.5v0.6H112v1.5C112,36.3,114.8,36.3,114.8,36.3z"/>
	<path class="st0" d="M115.7,36.3l0.3-0.5c0.4,0.3,1,0.6,1.6,0.6c0.8,0,1.2-0.3,1.2-0.7c0-1.2-3-0.4-3-2.2c0-0.7,0.6-1.4,1.9-1.4
		c0.6,0,1.2,0.1,1.6,0.4l-0.2,0.5c-0.4-0.3-0.9-0.4-1.3-0.4c-0.8,0-1.2,0.3-1.2,0.8c0,1.2,3,0.4,3,2.2c0,0.7-0.6,1.4-1.9,1.4
		C116.9,36.9,116.1,36.7,115.7,36.3z"/>
</g>
</svg>
