<?xml version="1.0" encoding="utf-8"?>
<!-- Generator: Adobe Illustrator 26.0.3, SVG Export Plug-In . SVG Version: 6.00 Build 0)  -->
<svg version="1.1" id="Layer_1" xmlns="http://www.w3.org/2000/svg" xmlns:xlink="http://www.w3.org/1999/xlink" x="0px" y="0px"
	 viewBox="0 0 27.3 27.4" style="enable-background:new 0 0 27.3 27.4;" xml:space="preserve">
<style type="text/css">
	.st0{fill:#FFFFFF;}
	.st1{fill:#E30613;}
	.st2{fill:#233979;}
</style>
<path class="st0" d="M16.9,27.3h-6.5C4.7,27.3,0,22.7,0,16.9v-6.5C0,4.7,4.7,0.1,10.4,0.1h6.5c5.7,0,10.4,4.7,10.4,10.4v6.5
	C27.3,22.7,22.6,27.3,16.9,27.3z"/>
<path class="st1" d="M10.4,10.3L0.1,10.1l0,0C0.2,4.4,4.8-0.1,10.5,0l0,0L10.4,10.3z"/>
<path class="st1" d="M27.3,10.5L17,10.4l0.1-10.3l0,0C22.9,0.2,27.4,4.8,27.3,10.5L27.3,10.5"/>
<path class="st1" d="M16.8,27.4L16.8,27.4L17,17.1l10.2,0.1l0,0C27.1,22.9,22.5,27.4,16.8,27.4z"/>
<path class="st1" d="M10.4,27.2h-0.3C4.4,27.2-0.1,22.5,0,16.9l0,0l10.5,0.2L10.4,27.2z"/>
<polygon class="st2" points="27.3,12.2 27.3,15.6 15.3,15.4 15.2,27.3 11.8,27.3 12,15.2 0,15.1 0.1,11.8 12,12 12.2,0 15.5,0.1 
	15.4,12 "/>
</svg>
