<?xml version="1.0" encoding="utf-8"?>
<!-- Generator: Adobe Illustrator 26.0.3, SVG Export Plug-In . SVG Version: 6.00 Build 0)  -->
<svg version="1.1" id="Layer_1" xmlns="http://www.w3.org/2000/svg" xmlns:xlink="http://www.w3.org/1999/xlink" x="0px" y="0px"
	 viewBox="0 0 27.3 27.4" style="enable-background:new 0 0 27.3 27.4;" xml:space="preserve">
<style type="text/css">
	.st0{fill:#FFFFFF;}
	.st1{fill:#E20E17;}
	.st2{fill:none;}
	.st3{fill:#203A78;}
</style>
<path class="st0" d="M16.9,27.3h-6.5C4.7,27.3,0,22.6,0,16.9v-6.5C0,4.7,4.7,0,10.4,0h6.5c5.7,0,10.4,4.7,10.4,10.4v6.5
	C27.3,22.6,22.6,27.3,16.9,27.3z"/>
<path class="st1" d="M2.6,23.9c0.6,0.8,1.4,1.4,2.3,1.9l5.8-5.8v-3H9.5L2.6,23.9z"/>
<path class="st2" d="M2.9,3.2L2.9,3.2C3.1,3,3.2,2.9,3.4,2.8"/>
<path class="st3" d="M21,26.6c-1.2,0.5-2.6,0.8-4,0.8h-0.1v-0.2l0.1-4.7l4,4V26.6z"/>
<path class="st3" d="M27.2,17.3c0,2-0.6,3.8-1.6,5.4l-0.1-0.1l-5.4-5.4l7,0.1H27.2z"/>
<path class="st3" d="M4.6,10.2L4.6,10.2l-4.5-0.1c0-1.3,0.3-2.6,0.8-3.7L4.6,10.2z"/>
<path class="st3" d="M10.5,0l-0.1,7.5L4.7,1.7C6.3,0.6,8.3,0,10.4,0H10.5z"/>
<path class="st3" d="M27.3,10.4v0.1l-4.9-0.1l0,0l4-4l0.1-0.1C27,7.6,27.3,9,27.3,10.4z"/>
<path class="st3" d="M22.6,1.7l-5.5,5.5l0.1-7.1C19.2,0.1,21,0.7,22.6,1.7z"/>
<path class="st3" d="M7.3,17l-5.6,5.6l0,0C0.6,21,0,19,0,16.9L7.3,17z"/>
<path class="st3" d="M10.5,22.5l-0.1,4.8h-0.3c-1.3,0-3.7-0.8-3.7-0.8L10.5,22.5z"/>
<path class="st1" d="M24.7,23.9c-0.6,0.8-1.4,1.4-2.3,1.9L16.6,20v-3h1.1L24.7,23.9z"/>
<polygon class="st1" points="27.3,12.2 27.3,15.6 21.6,15.5 18.4,15.5 18.4,15.5 16.2,15.4 15.3,15.4 15.3,18.7 15.2,20.8 
	15.2,20.8 15.2,27.3 11.8,27.3 11.9,21 11.9,20.9 11.9,18.8 12,15.2 11.3,15.2 9.1,15.2 9.1,15.2 0,15.1 0.1,11.8 6.3,11.9 
	6.3,11.9 8.5,11.9 12,12 12,11.3 12.1,9.1 12.1,9.1 12.2,0 15.5,0.1 15.4,8.9 15.4,8.9 15.4,11.1 15.4,12 18.6,12.1 20.7,12.1 
	20.7,12.1 25.4,12.2 "/>
<path class="st1" d="M3.6,2.6C2.9,3.2,2.2,4,1.7,4.9l5.8,5.7h3.1V9.5L3.6,2.6z"/>
<path class="st1" d="M24,2.5c0.8,0.7,1.4,1.5,2,2.3l-5.8,5.8h-3.1V9.5L24,2.5z"/>
</svg>
